<?xml version="1.0" encoding="UTF-8"?>
<svg xmlns="http://www.w3.org/2000/svg" xmlns:xlink="http://www.w3.org/1999/xlink" width="1500" height="1000" viewBox="0 0 1500 1000">
<path fill-rule="nonzero" fill="rgb(13.330078%, 33.325195%, 0%)" fill-opacity="1" d="M 263.488281 370.308594 C 184.9375 354.359375 126.164062 387.070312 115.304688 460.308594 C 83.644531 405.589844 24.191406 361.570312 -51.9375 398.339844 C -31.960938 477.441406 31.320312 513.210938 113.570312 480.539062 C 113.515625 482.539062 113.480469 484.558594 113.488281 486.621094 C 184.503906 488.601562 265.910156 458.921875 263.488281 370.308594 Z M 164.828125 510.410156 C 153.703125 503.691406 140.4375 498.390625 124.761719 494.921875 C 122.234375 499.671875 119.976562 504.378906 117.984375 509.058594 C 114.292969 501.769531 109.582031 494.421875 103.738281 487.039062 C 21.621094 520.488281 -3.679688 589.640625 52.640625 664.089844 C 78.363281 647.851562 102.011719 625.640625 115.894531 599.890625 C 129.855469 628.398438 159.855469 650.511719 205.730469 661.691406 C 222.277344 608.25 218.429688 542.800781 164.828125 510.410156 "/>
<path fill-rule="nonzero" fill="rgb(26.660156%, 66.601562%, 0%)" fill-opacity="1" d="M 936.808594 180.539062 C 885.699219 256.261719 904.871094 332.640625 997.730469 368.53125 C 1026.648438 302.101562 1027.460938 213.300781 936.808594 180.539062 Z M 1127.871094 226.46875 C 1037.980469 246.5 998.53125 314.871094 1040.710938 404.101562 C 1108.050781 375.691406 1170.640625 311.941406 1127.871094 226.46875 Z M 884.761719 327.609375 C 854.660156 327.460938 824.378906 339.398438 797.828125 369.890625 C 851.621094 443.78125 930.761719 452.921875 997.449219 379.699219 C 966.921875 350.730469 926.011719 327.820312 884.761719 327.609375 Z M 1026.53125 391.421875 C 955.21875 407.851562 882.371094 459.910156 909.480469 551.410156 C 1001.519531 547.089844 1052.390625 486.519531 1026.53125 391.421875 "/>
<path fill-rule="nonzero" fill="rgb(26.660156%, 66.601562%, 0%)" fill-opacity="1" d="M 1405.101562 99.570312 C 1340.078125 141.941406 1326.921875 205.339844 1379.839844 262.730469 C 1375.289062 263.679688 1370.640625 264.890625 1365.878906 266.410156 C 1366.921875 278.730469 1369.160156 290.148438 1372.5 300.578125 C 1358.410156 283.460938 1342.210938 272.859375 1325.070312 267.320312 C 1348.820312 209.25 1346.960938 134.71875 1267.429688 106.660156 C 1225.640625 167.089844 1235.691406 228 1299.800781 262.671875 C 1264.421875 260.679688 1227.570312 275.980469 1198.511719 297.058594 C 1202.960938 303.179688 1207.570312 308.761719 1212.300781 313.839844 C 1175.199219 285.878906 1127.070312 275.140625 1077.988281 310.75 C 1111.121094 384.679688 1179.398438 407.371094 1252.808594 356.539062 C 1246.949219 348.089844 1240.308594 339.898438 1233 332.289062 C 1278.769531 365.359375 1332.351562 356.78125 1376.761719 311.96875 C 1379.71875 318.828125 1383.21875 325.160156 1387.238281 330.941406 C 1364.210938 340.820312 1343.488281 355.210938 1329.828125 374.328125 C 1331.160156 368.28125 1332.191406 361.929688 1332.898438 355.261719 C 1267.140625 346.609375 1188.410156 366.921875 1181.390625 451.011719 C 1238.839844 469.21875 1287.671875 456.300781 1313.761719 414.878906 C 1312.050781 428.160156 1313.128906 442.820312 1317.75 458.898438 C 1384.789062 456.761719 1428.230469 422.171875 1431.25 364.878906 C 1454.539062 373.308594 1483.269531 373.511719 1516.28125 363.78125 C 1501.800781 312.070312 1464.398438 260.199219 1403.898438 260.160156 C 1443.351562 215.191406 1463.589844 150.988281 1405.101562 99.570312 Z M 1147.769531 163.070312 C 1136.398438 163.25 1124.230469 165.261719 1111.261719 169.429688 C 1118.328125 249.671875 1175.609375 292.101562 1261.960938 266.371094 C 1247.199219 214.28125 1209.148438 162.070312 1147.769531 163.070312 "/>
<path fill-rule="nonzero" fill="rgb(26.660156%, 66.601562%, 0%)" fill-opacity="1" d="M 960.03125 88.621094 C 895.011719 130.988281 881.839844 194.390625 934.769531 251.78125 C 930.21875 252.730469 925.570312 253.941406 920.800781 255.460938 C 921.851562 267.769531 924.089844 279.199219 927.429688 289.628906 C 913.339844 272.5 897.140625 261.898438 880 256.371094 C 903.75 198.300781 901.890625 123.769531 822.359375 95.699219 C 780.570312 156.140625 790.621094 217.039062 854.730469 251.71875 C 819.351562 249.71875 782.5 265.03125 753.441406 286.101562 C 757.890625 292.21875 762.5 297.808594 767.21875 302.890625 C 730.128906 274.929688 681.988281 264.191406 632.921875 299.800781 C 666.050781 373.71875 734.328125 396.421875 807.738281 345.578125 C 801.878906 337.140625 795.230469 328.949219 787.929688 321.339844 C 833.699219 354.410156 887.28125 345.820312 931.691406 301.011719 C 934.648438 307.871094 938.148438 314.210938 942.171875 319.980469 C 919.128906 329.871094 898.421875 344.25 884.761719 363.371094 C 886.089844 357.328125 887.121094 350.980469 887.828125 344.308594 C 822.070312 335.648438 743.339844 355.960938 736.320312 440.050781 C 793.769531 458.261719 842.601562 445.351562 868.691406 403.921875 C 866.980469 417.210938 868.058594 431.859375 872.679688 447.941406 C 939.71875 445.808594 983.160156 411.21875 986.179688 353.921875 C 1009.46875 362.351562 1038.199219 362.558594 1071.199219 352.820312 C 1056.730469 301.121094 1019.328125 249.25 958.828125 249.199219 C 998.28125 204.230469 1018.519531 140.03125 960.03125 88.621094 Z M 702.699219 152.109375 C 691.328125 152.300781 679.160156 154.308594 666.191406 158.480469 C 673.261719 238.71875 730.539062 281.148438 816.890625 255.421875 C 802.128906 203.328125 764.078125 151.121094 702.699219 152.109375 "/>
<path fill-rule="nonzero" fill="rgb(26.660156%, 66.601562%, 0%)" fill-opacity="1" d="M 669.578125 317.25 C 604.558594 359.621094 591.398438 423.019531 644.320312 480.410156 C 639.78125 481.359375 635.128906 482.570312 630.359375 484.089844 C 631.410156 496.398438 633.640625 507.828125 636.980469 518.261719 C 622.890625 501.128906 606.691406 490.53125 589.558594 485 C 613.300781 426.929688 611.449219 352.398438 531.910156 324.328125 C 490.128906 384.769531 500.171875 445.671875 564.289062 480.339844 C 528.898438 478.351562 492.050781 493.660156 462.988281 514.730469 C 467.449219 520.851562 472.050781 526.441406 476.78125 531.519531 C 439.679688 503.558594 391.550781 492.820312 342.480469 528.429688 C 375.609375 602.351562 443.890625 625.050781 517.300781 574.210938 C 511.441406 565.769531 504.789062 557.578125 497.480469 549.96875 C 543.25 583.039062 596.839844 574.449219 641.238281 529.640625 C 644.199219 536.5 647.699219 542.839844 651.71875 548.609375 C 628.691406 558.5 607.96875 572.878906 594.308594 592 C 595.640625 585.960938 596.671875 579.609375 597.390625 572.941406 C 531.621094 564.28125 452.898438 584.589844 445.871094 668.679688 C 503.320312 686.890625 552.160156 673.96875 578.25 632.550781 C 576.53125 645.839844 577.621094 660.488281 582.238281 676.570312 C 649.28125 674.441406 692.71875 639.851562 695.730469 582.550781 C 719.03125 590.980469 747.75 591.191406 780.761719 581.460938 C 766.28125 529.75 728.890625 477.878906 668.378906 477.828125 C 707.828125 432.859375 728.070312 368.660156 669.578125 317.25 Z M 412.25 380.738281 C 400.878906 380.929688 388.71875 382.941406 375.75 387.109375 C 382.820312 467.351562 440.089844 509.78125 526.441406 484.050781 C 511.691406 431.960938 473.640625 379.75 412.25 380.738281 "/>
<path fill-rule="nonzero" fill="rgb(26.660156%, 66.601562%, 0%)" fill-opacity="1" d="M 796.929688 425.621094 C 731.910156 467.988281 718.75 531.390625 771.671875 588.78125 C 767.121094 589.730469 762.46875 590.941406 757.710938 592.460938 C 758.75 604.78125 760.988281 616.199219 764.328125 626.628906 C 750.238281 609.511719 734.039062 598.910156 716.910156 593.371094 C 740.648438 535.300781 738.800781 460.769531 659.261719 432.710938 C 617.480469 493.140625 627.519531 554.050781 691.628906 588.71875 C 656.25 586.730469 619.398438 602.03125 590.339844 623.101562 C 594.789062 629.21875 599.398438 634.808594 604.128906 639.890625 C 567.03125 611.929688 518.898438 601.191406 469.820312 636.800781 C 502.949219 710.730469 571.238281 733.421875 644.640625 682.578125 C 638.78125 674.140625 632.140625 665.949219 624.828125 658.339844 C 670.601562 691.410156 724.191406 682.828125 768.589844 638.019531 C 771.550781 644.878906 775.050781 651.210938 779.070312 656.988281 C 756.039062 666.871094 735.320312 681.25 721.660156 700.378906 C 722.988281 694.328125 724.019531 687.980469 724.730469 681.308594 C 658.96875 672.660156 580.238281 692.96875 573.21875 777.058594 C 630.671875 795.269531 679.5 782.351562 705.589844 740.921875 C 703.878906 754.210938 704.96875 768.871094 709.578125 784.949219 C 776.621094 782.808594 820.058594 748.21875 823.078125 690.921875 C 846.371094 699.351562 875.101562 699.558594 908.109375 689.828125 C 893.628906 638.121094 856.230469 586.25 795.730469 586.210938 C 835.179688 541.230469 855.421875 477.039062 796.929688 425.621094 Z M 539.601562 489.121094 C 528.230469 489.300781 516.058594 491.308594 503.089844 495.480469 C 510.171875 575.71875 567.441406 618.148438 653.789062 592.421875 C 639.03125 540.328125 600.980469 488.121094 539.601562 489.121094 "/>
<path fill-rule="nonzero" fill="rgb(26.660156%, 66.601562%, 0%)" fill-opacity="1" d="M 1049.140625 274.21875 C 984.121094 316.601562 970.960938 379.988281 1023.878906 437.378906 C 1019.328125 438.328125 1014.679688 439.550781 1009.910156 441.058594 C 1010.960938 453.378906 1013.199219 464.800781 1016.539062 475.230469 C 1002.449219 458.109375 986.25 447.511719 969.109375 441.96875 C 992.859375 383.898438 991 309.371094 911.46875 281.308594 C 869.679688 341.738281 879.730469 402.648438 943.839844 437.320312 C 908.460938 435.328125 871.609375 450.640625 842.550781 471.710938 C 847 477.828125 851.609375 483.410156 856.339844 488.488281 C 819.238281 460.53125 771.109375 449.800781 722.03125 485.410156 C 755.160156 559.328125 823.441406 582.019531 896.851562 531.191406 C 890.988281 522.738281 884.351562 514.550781 877.039062 506.941406 C 922.808594 540.011719 976.390625 531.429688 1020.800781 486.621094 C 1023.761719 493.480469 1027.261719 499.808594 1031.28125 505.589844 C 1008.238281 515.46875 987.53125 529.859375 973.871094 548.980469 C 975.199219 542.941406 976.230469 536.578125 976.941406 529.921875 C 911.179688 521.261719 832.449219 541.570312 825.429688 625.660156 C 882.878906 643.871094 931.710938 630.949219 957.800781 589.53125 C 956.089844 602.808594 957.171875 617.46875 961.789062 633.550781 C 1028.828125 631.410156 1072.269531 596.820312 1075.289062 539.53125 C 1098.578125 547.960938 1127.308594 548.160156 1160.308594 538.429688 C 1145.839844 486.730469 1108.441406 434.859375 1047.941406 434.808594 C 1087.390625 389.839844 1107.628906 325.640625 1049.140625 274.21875 Z M 791.808594 337.71875 C 780.441406 337.898438 768.269531 339.910156 755.300781 344.078125 C 762.371094 424.320312 819.648438 466.75 906 441.019531 C 891.238281 388.929688 853.191406 336.730469 791.808594 337.71875 "/>
<path fill-rule="nonzero" fill="rgb(26.660156%, 66.601562%, 0%)" fill-opacity="1" d="M 910.96875 389.46875 C 845.949219 431.851562 832.78125 495.25 885.710938 552.628906 C 881.160156 553.589844 876.511719 554.800781 871.738281 556.320312 C 872.789062 568.628906 875.03125 580.058594 878.371094 590.488281 C 864.269531 573.359375 848.078125 562.761719 830.941406 557.21875 C 854.691406 499.160156 852.828125 424.628906 773.289062 396.558594 C 731.511719 456.988281 741.558594 517.898438 805.671875 552.570312 C 770.289062 550.578125 733.441406 565.890625 704.378906 586.960938 C 708.828125 593.078125 713.429688 598.660156 718.160156 603.75 C 681.058594 575.789062 632.929688 565.050781 583.859375 600.660156 C 616.988281 674.578125 685.269531 697.28125 758.679688 646.441406 C 752.820312 638 746.171875 629.808594 738.859375 622.199219 C 784.640625 655.261719 838.21875 646.679688 882.628906 601.871094 C 885.578125 608.730469 889.089844 615.070312 893.109375 620.839844 C 870.070312 630.730469 849.359375 645.109375 835.691406 664.230469 C 837.019531 658.191406 838.058594 651.839844 838.769531 645.171875 C 773.011719 636.511719 694.28125 656.820312 687.25 740.910156 C 744.710938 759.121094 793.539062 746.199219 819.628906 704.78125 C 817.921875 718.070312 819 732.71875 823.621094 748.800781 C 890.660156 746.660156 934.101562 712.078125 937.121094 654.78125 C 960.410156 663.210938 989.140625 663.421875 1022.140625 653.679688 C 1007.671875 601.980469 970.269531 550.109375 909.761719 550.058594 C 949.21875 505.089844 969.460938 440.890625 910.96875 389.46875 Z M 653.628906 452.96875 C 642.269531 453.160156 630.101562 455.160156 617.128906 459.339844 C 624.199219 539.578125 681.46875 582 767.828125 556.28125 C 753.070312 504.191406 715.019531 451.980469 653.628906 452.96875 "/>
<path fill-rule="nonzero" fill="rgb(26.660156%, 66.601562%, 0%)" fill-opacity="1" d="M 3482.160156 199.179688 C 3404.441406 188 3349.980469 226.03125 3348.328125 302.660156 C 3344.320312 300.390625 3340.039062 298.261719 3335.46875 296.269531 C 3327.539062 306 3321.109375 315.859375 3316.199219 325.699219 C 3317.941406 303.941406 3313.519531 285.601562 3304.839844 270.378906 C 3363.320312 243.160156 3414.601562 187.179688 3375.96875 114.78125 C 3302.570312 132 3266.929688 183.300781 3289.550781 250.511719 C 3264.960938 226.019531 3227.058594 213.28125 3190.820312 209.851562 C 3189.761719 217.25 3189.199219 224.351562 3189.089844 231.160156 C 3181.570312 186.460938 3153.789062 147.238281 3092.558594 141.46875 C 3064.691406 217.371094 3098.839844 278.488281 3188.699219 288.910156 C 3190.359375 278.890625 3191.269531 268.550781 3191.269531 258.199219 C 3201.550781 312.289062 3246.988281 340.871094 3311.28125 336.839844 C 3308.609375 343.800781 3306.710938 350.738281 3305.589844 357.601562 C 3281.671875 349.871094 3256.289062 346.960938 3232.738281 352.121094 C 3237.980469 348.539062 3243.230469 344.550781 3248.460938 340.109375 C 3206.25 290.941406 3134.039062 254.621094 3069.46875 311.851562 C 3098.828125 362.628906 3143.839844 384.921875 3192.289062 371.460938 C 3181.640625 380.109375 3172.078125 391.589844 3164.121094 406.410156 C 3214.898438 448.480469 3271.261719 451.339844 3313.949219 411.191406 C 3325.121094 432.550781 3346.089844 451.398438 3377.21875 465.730469 C 3403.109375 418.308594 3412.269531 355.839844 3367.828125 316.421875 C 3428.601562 309.050781 3488.828125 275.039062 3482.160156 199.179688 Z M 3248.179688 78.351562 C 3239.691406 71.078125 3229.328125 64.640625 3216.859375 59.261719 C 3165.359375 122.839844 3177.480469 191.300781 3259.121094 228.601562 C 3285.078125 180.710938 3294 117.570312 3248.179688 78.351562 "/>
<path fill-rule="nonzero" fill="rgb(26.660156%, 66.601562%, 0%)" fill-opacity="1" d="M 3299.671875 541.179688 C 3263.441406 608.121094 3283.238281 669.898438 3358.21875 696.261719 C 3354.691406 699.171875 3351.199219 702.359375 3347.761719 705.871094 C 3354.769531 716.21875 3362.398438 725.261719 3370.5 732.910156 C 3349.621094 724.269531 3330.121094 722.328125 3312.308594 725.28125 C 3304.449219 663.351562 3265.921875 598.621094 3182.039062 610.210938 C 3175.199219 682.441406 3214.191406 731.449219 3287.769531 732.710938 C 3255.648438 747.101562 3230.808594 777.378906 3215.671875 809.171875 C 3222.621094 812.53125 3229.429688 815.339844 3236.109375 817.648438 C 3189.621094 809.980469 3141.960938 822.488281 3116.410156 876.199219 C 3182.160156 926.128906 3253.480469 914.949219 3292.898438 836.738281 C 3283.558594 831.980469 3273.660156 827.808594 3263.460938 824.449219 C 3320.101562 832.660156 3363 800.671875 3379.890625 740.980469 C 3385.890625 745.671875 3392.101562 749.648438 3398.5 752.890625 C 3383.128906 772.101562 3372.019531 794.199219 3369.46875 817.261719 C 3367.640625 811.339844 3365.410156 805.28125 3362.730469 799.089844 C 3300.589844 821.46875 3241.371094 875.25 3276.820312 952.441406 C 3336.390625 942.261719 3372.960938 908.609375 3375.410156 860.269531 C 3380.480469 872.738281 3388.691406 885.140625 3400.710938 897.179688 C 3458.640625 864.71875 3479.738281 814.46875 3454.019531 762.679688 C 3478.691406 759.46875 3504.070312 746.550781 3528.289062 722.929688 C 3489.960938 684.039062 3431.371094 655.460938 3378.109375 683.019531 C 3390.558594 625.449219 3376.578125 559.730469 3299.671875 541.179688 Z M 3104.691406 714.429688 C 3094.769531 719.78125 3085.058594 727.101562 3075.71875 736.679688 C 3121.671875 804.058594 3193.058594 815.261719 3256.300781 753.230469 C 3217.53125 714.128906 3158.210938 685.558594 3104.691406 714.429688 "/>
<path fill-rule="nonzero" fill="rgb(19.993591%, 50.193787%, 0%)" fill-opacity="1" d="M 3259.941406 541.039062 C 3194.921875 583.421875 3181.75 646.808594 3234.679688 704.199219 C 3230.128906 705.148438 3225.480469 706.371094 3220.710938 707.890625 C 3221.761719 720.199219 3224 731.621094 3227.339844 742.058594 C 3213.25 724.929688 3197.050781 714.328125 3179.910156 708.789062 C 3203.660156 650.71875 3201.800781 576.191406 3122.269531 548.128906 C 3080.480469 608.558594 3090.53125 669.46875 3154.640625 704.140625 C 3119.261719 702.148438 3082.410156 717.460938 3053.351562 738.53125 C 3057.800781 744.648438 3062.410156 750.230469 3067.128906 755.308594 C 3030.039062 727.351562 2981.898438 716.621094 2932.828125 752.230469 C 2965.960938 826.148438 3034.238281 848.851562 3107.648438 798.011719 C 3101.789062 789.570312 3095.140625 781.371094 3087.839844 773.761719 C 3133.609375 806.828125 3187.191406 798.25 3231.601562 753.441406 C 3234.558594 760.300781 3238.058594 766.640625 3242.078125 772.410156 C 3219.039062 782.289062 3198.328125 796.679688 3184.671875 815.800781 C 3186 809.761719 3187.03125 803.398438 3187.738281 796.738281 C 3121.980469 788.078125 3043.25 808.390625 3036.230469 892.480469 C 3093.679688 910.691406 3142.511719 897.769531 3168.601562 856.351562 C 3166.890625 869.628906 3167.96875 884.289062 3172.589844 900.371094 C 3239.628906 898.230469 3283.070312 863.648438 3286.089844 806.351562 C 3309.378906 814.78125 3338.109375 814.980469 3371.109375 805.25 C 3356.640625 753.550781 3319.238281 701.679688 3258.738281 701.628906 C 3298.191406 656.660156 3318.429688 592.460938 3259.941406 541.039062 Z M 3002.609375 604.539062 C 2991.238281 604.71875 2979.070312 606.730469 2966.101562 610.898438 C 2973.171875 691.148438 3030.449219 733.570312 3116.800781 707.839844 C 3102.039062 655.75 3063.988281 603.550781 3002.609375 604.539062 "/>
<path fill-rule="nonzero" fill="rgb(26.660156%, 66.601562%, 0%)" fill-opacity="1" d="M 3382.078125 432.511719 C 3447.101562 474.878906 3460.261719 538.28125 3407.339844 595.671875 C 3411.890625 596.621094 3416.539062 597.828125 3421.300781 599.351562 C 3420.261719 611.660156 3418.019531 623.089844 3414.679688 633.519531 C 3428.769531 616.390625 3444.96875 605.800781 3462.101562 600.261719 C 3438.359375 542.191406 3440.210938 467.660156 3519.75 439.589844 C 3561.53125 500.03125 3551.488281 560.941406 3487.378906 595.609375 C 3522.761719 593.609375 3559.609375 608.921875 3588.671875 629.988281 C 3584.21875 636.109375 3579.609375 641.699219 3574.878906 646.78125 C 3611.980469 618.820312 3660.109375 608.078125 3709.191406 643.691406 C 3676.058594 717.621094 3607.769531 740.308594 3534.359375 689.46875 C 3540.230469 681.03125 3546.871094 672.839844 3554.179688 665.230469 C 3508.410156 698.300781 3454.820312 689.710938 3410.421875 644.898438 C 3407.460938 651.761719 3403.960938 658.101562 3399.941406 663.871094 C 3422.96875 673.761719 3443.691406 688.140625 3457.351562 707.261719 C 3456.019531 701.21875 3454.988281 694.871094 3454.28125 688.199219 C 3520.039062 679.539062 3598.769531 699.851562 3605.789062 783.949219 C 3548.339844 802.160156 3499.511719 789.238281 3473.421875 747.808594 C 3475.128906 761.101562 3474.039062 775.761719 3469.429688 791.828125 C 3402.390625 789.699219 3358.949219 755.109375 3355.929688 697.808594 C 3332.640625 706.238281 3303.910156 706.449219 3270.898438 696.71875 C 3285.378906 645.011719 3322.78125 593.140625 3383.28125 593.089844 C 3343.828125 548.121094 3323.589844 483.921875 3382.078125 432.511719 Z M 3639.410156 496 C 3650.78125 496.191406 3662.949219 498.199219 3675.910156 502.371094 C 3668.839844 582.609375 3611.570312 625.039062 3525.21875 599.308594 C 3539.980469 547.21875 3578.03125 495.011719 3639.410156 496 "/>
<path fill-rule="nonzero" fill="rgb(26.660156%, 66.601562%, 0%)" fill-opacity="1" d="M 2462.910156 1215.359375 C 2401.851562 1294.226562 2424.75 1373.78125 2535.679688 1411.164062 C 2570.230469 1341.96875 2571.199219 1249.480469 2462.910156 1215.359375 Z M 2691.140625 1263.203125 C 2583.769531 1284.058594 2536.628906 1355.269531 2587.03125 1448.210938 C 2667.46875 1418.617188 2742.238281 1352.214844 2691.140625 1263.203125 Z M 2400.730469 1368.542969 C 2364.769531 1368.382812 2328.601562 1380.816406 2296.878906 1412.578125 C 2361.140625 1489.535156 2455.691406 1499.058594 2535.339844 1422.800781 C 2498.878906 1392.621094 2450.011719 1368.761719 2400.730469 1368.542969 Z M 2570.089844 1435 C 2484.898438 1452.117188 2397.878906 1506.335938 2430.261719 1601.636719 C 2540.210938 1597.148438 2600.980469 1534.058594 2570.089844 1435 "/>
<path fill-rule="nonzero" fill="rgb(26.660156%, 66.601562%, 0%)" fill-opacity="1" d="M 623.519531 85.691406 C 573.933594 156.089844 592.53125 227.109375 682.621094 260.480469 C 710.6875 198.710938 711.472656 116.148438 623.519531 85.691406 Z M 808.886719 128.398438 C 721.675781 147.011719 683.398438 210.589844 724.328125 293.550781 C 789.660156 267.140625 850.386719 207.859375 808.886719 128.398438 Z M 573.023438 222.429688 C 543.820312 222.289062 514.441406 233.390625 488.683594 261.738281 C 540.871094 330.441406 617.65625 338.949219 682.351562 270.871094 C 652.738281 243.929688 613.042969 222.628906 573.023438 222.429688 Z M 710.570312 281.761719 C 641.382812 297.039062 570.707031 345.441406 597.003906 430.519531 C 686.300781 426.511719 735.65625 370.191406 710.570312 281.761719 "/>
<path fill-rule="nonzero" fill="rgb(26.660156%, 66.601562%, 0%)" fill-opacity="1" d="M 668.125 476.230469 C 618.535156 546.640625 637.132812 617.660156 727.222656 651.03125 C 755.289062 589.261719 756.074219 506.691406 668.125 476.230469 Z M 853.488281 518.941406 C 766.28125 537.558594 728.003906 601.128906 768.929688 684.101562 C 834.261719 657.679688 894.988281 598.398438 853.488281 518.941406 Z M 617.625 612.980469 C 588.421875 612.839844 559.046875 623.941406 533.285156 652.289062 C 585.472656 720.988281 662.257812 729.488281 726.953125 661.410156 C 697.339844 634.480469 657.644531 613.171875 617.625 612.980469 Z M 755.171875 672.308594 C 685.984375 687.589844 615.308594 735.988281 641.605469 821.058594 C 730.902344 817.058594 780.261719 760.738281 755.171875 672.308594 "/>
<path fill-rule="nonzero" fill="rgb(26.660156%, 66.601562%, 0%)" fill-opacity="1" d="M 285.109375 1724.304688 C 325.621094 1830.28125 425.484375 1869.09375 542.34375 1806.613281 C 493.519531 1728.953125 396.695312 1661.597656 285.109375 1724.304688 Z M 494.898438 1574.816406 C 441.914062 1676.359375 484.085938 1765.605469 617.25 1791.894531 C 642.21875 1705.765625 624.417969 1597.714844 494.898438 1574.816406 Z M 403.1875 1884.675781 C 377.914062 1913.539062 365.769531 1951.640625 377.105469 2000.0625 C 503.101562 2003.675781 579.15625 1934.339844 554.375 1815.253906 C 497.105469 1822.914062 437.820312 1845.125 403.1875 1884.675781 Z M 591.496094 1796.035156 C 550.0625 1877.007812 546.46875 1986.164062 669.542969 2028.675781 C 741.578125 1936.835938 717.496094 1842.449219 591.496094 1796.035156 "/>
<path fill-rule="nonzero" fill="rgb(26.660156%, 66.601562%, 0%)" fill-opacity="1" d="M 561.15625 1692.679688 C 597.652344 1799.796875 695.996094 1841.550781 815.144531 1782.574219 C 769.273438 1703.507812 675.039062 1633.316406 561.15625 1692.679688 Z M 776.457031 1549.5 C 719.679688 1649.414062 758.464844 1739.859375 890.5625 1770.085938 C 918.761719 1684.746094 905.042969 1576.226562 776.457031 1549.5 Z M 673.128906 1856.464844 C 646.78125 1884.5625 633.207031 1922.277344 642.714844 1971.011719 C 768.503906 1978.363281 847.125 1911.324219 826.84375 1791.566406 C 769.316406 1797.527344 709.230469 1817.960938 673.128906 1856.464844 Z M 864.667969 1773.460938 C 820.210938 1853.160156 812.503906 1962.148438 933.910156 2008.285156 C 1009.359375 1918.636719 988.851562 1823.589844 864.667969 1773.460938 "/>
<path fill-rule="nonzero" fill="rgb(26.660156%, 66.601562%, 0%)" fill-opacity="1" d="M 1011.519531 1600.3125 C 891.609375 1634.839844 846.539062 1722.957031 915.332031 1827.535156 C 1003.46875 1785.25 1080.640625 1700.210938 1011.519531 1600.3125 Z M 1177.058594 1788.5625 C 1063.398438 1740.152344 962.3125 1776.378906 930.894531 1894.226562 C 1027.570312 1917.558594 1149.511719 1903.21875 1177.058594 1788.5625 Z M 829.289062 1702.953125 C 797.121094 1680.128906 754.371094 1668.832031 699.675781 1678.238281 C 693.902344 1790.03125 770.964844 1858.480469 905.4375 1838.097656 C 897.582031 1787.15625 873.371094 1734.234375 829.289062 1702.953125 Z M 926.578125 1871.308594 C 835.9375 1833.433594 713.035156 1828.761719 663.488281 1937.4375 C 765.957031 2002.621094 872.597656 1982.527344 926.578125 1871.308594 "/>
<path fill-rule="nonzero" fill="rgb(26.660156%, 66.601562%, 0%)" fill-opacity="1" d="M 1356.808594 1463.742188 C 1249.179688 1522.003906 1228.351562 1616.996094 1322.578125 1704.566406 C 1397.269531 1645.296875 1450.140625 1546.691406 1356.808594 1463.742188 Z M 1567 1612.792969 C 1443.800781 1589.09375 1354.921875 1645.136719 1355.140625 1766.238281 C 1455.269531 1769.039062 1570.148438 1729.996094 1567 1612.792969 Z M 1206.351562 1601.089844 C 1169.101562 1585.507812 1124.558594 1583.316406 1073.808594 1603.722656 C 1097.390625 1713.660156 1190.230469 1764.382812 1315.710938 1716.882812 C 1294.769531 1668.945312 1257.398438 1622.445312 1206.351562 1601.089844 Z M 1344.949219 1744.835938 C 1246.890625 1726.648438 1126.121094 1747.398438 1106.300781 1863.308594 C 1223 1905.628906 1321.488281 1864.132812 1344.949219 1744.835938 "/>
<path fill-rule="nonzero" fill="rgb(26.660156%, 66.601562%, 0%)" fill-opacity="1" d="M 1253.371094 1222.058594 C 1140.171875 1271.304688 1109.601562 1364.199219 1194.378906 1459.078125 C 1274.878906 1406.148438 1337.71875 1312.269531 1253.371094 1222.058594 Z M 1447.25 1387.613281 C 1327.019531 1353.976562 1232.730469 1402.535156 1220.410156 1523.144531 C 1319.828125 1534.09375 1438.269531 1504.578125 1447.25 1387.613281 Z M 1089.339844 1346.566406 C 1053.851562 1328.011719 1009.730469 1322.199219 957.089844 1338.382812 C 969.195312 1449.777344 1056.398438 1507.855469 1186.261719 1470.78125 C 1170.371094 1421.339844 1137.960938 1371.992188 1089.339844 1346.566406 Z M 1212.488281 1501 C 1116.71875 1474.894531 994.3125 1485.714844 962.589844 1599.519531 C 1074.421875 1651.175781 1176.78125 1617.882812 1212.488281 1501 "/>
<path fill-rule="nonzero" fill="rgb(26.660156%, 66.601562%, 0%)" fill-opacity="1" d="M 1046.480469 1437.066406 C 922.222656 1455.9375 863.363281 1537.394531 914.519531 1649.660156 C 1008.578125 1619.054688 1098.71875 1544.742188 1046.480469 1437.066406 Z M 1179.839844 1644.472656 C 1075.191406 1582.070312 969.289062 1605.027344 919.125 1717.644531 C 1011.019531 1753.0625 1134.019531 1754.429688 1179.839844 1644.472656 Z M 849.527344 1515.402344 C 821.386719 1488.710938 780.910156 1472.078125 725.257812 1474.410156 C 701.453125 1584.308594 766.640625 1661.875 903.015625 1658.855469 C 903.484375 1607.441406 888.089844 1551.976562 849.527344 1515.402344 Z M 918.5625 1694.414062 C 834.988281 1645.375 714.121094 1625.078125 647.503906 1726.304688 C 738.355469 1803.882812 847.140625 1797.59375 918.5625 1694.414062 "/>
<path fill-rule="nonzero" fill="rgb(26.660156%, 66.601562%, 0%)" fill-opacity="1" d="M 998.421875 1447.386719 C 921.640625 1536.144531 940.738281 1631.425781 1064.160156 1683 C 1109.800781 1603.828125 1119.128906 1494.941406 998.421875 1447.386719 Z M 1254.960938 1519.253906 C 1130.410156 1536.527344 1070.230469 1617.21875 1119.550781 1730.128906 C 1214.101562 1700.734375 1305.441406 1627.589844 1254.960938 1519.253906 Z M 913.757812 1623.617188 C 872.683594 1620.988281 830.246094 1633.175781 791.179688 1668.4375 C 857.765625 1763.464844 964.949219 1781.109375 1062.75 1696.683594 C 1023.769531 1658.65625 970.042969 1627.222656 913.757812 1623.617188 Z M 1101.371094 1713.414062 C 1002.5 1727.792969 898.246094 1785.757812 926.773438 1900.226562 C 1052.808594 1902.40625 1127.859375 1832.214844 1101.371094 1713.414062 "/>
<path fill-rule="nonzero" fill="rgb(26.660156%, 66.601562%, 0%)" fill-opacity="1" d="M 1049.761719 1556.367188 C 1058.011719 1668.039062 1143.171875 1728.460938 1274.25 1694.9375 C 1249.71875 1608.710938 1175.808594 1521.414062 1049.761719 1556.367188 Z M 1295.960938 1460.136719 C 1215.191406 1546.058594 1229.929688 1641.949219 1350.898438 1697.921875 C 1400.109375 1620.453125 1414.398438 1511.992188 1295.960938 1460.136719 Z M 1117.089844 1738.394531 C 1084.269531 1760.472656 1061.429688 1794.488281 1058.28125 1843.867188 C 1178.929688 1876.285156 1272.601562 1826.773438 1283.359375 1706.046875 C 1225.808594 1700.300781 1162.070312 1708.140625 1117.089844 1738.394531 Z M 1324.820312 1696.007812 C 1261.199219 1764.710938 1225.929688 1869.328125 1332.429688 1938.648438 C 1428.769531 1866.476562 1433.011719 1769.769531 1324.820312 1696.007812 "/>
<path fill-rule="nonzero" fill="rgb(26.660156%, 66.601562%, 0%)" fill-opacity="1" d="M 1145.441406 1634.785156 C 1020.929688 1652.3125 960.953125 1733.125 1010.558594 1845.9375 C 1105.039062 1816.351562 1196.191406 1743.019531 1145.441406 1634.785156 Z M 1275.929688 1843.621094 C 1172.148438 1780.089844 1065.941406 1801.898438 1014.230469 1913.964844 C 1105.640625 1950.375 1228.609375 1953.070312 1275.929688 1843.621094 Z M 947.421875 1710.980469 C 919.648438 1683.988281 879.402344 1666.917969 823.722656 1668.648438 C 798.410156 1778.28125 862.527344 1856.546875 998.933594 1855.003906 C 1000.109375 1803.597656 985.476562 1747.972656 947.421875 1710.980469 Z M 1013.988281 1890.730469 C 931.097656 1840.789062 810.515625 1819.183594 742.511719 1919.683594 C 832.292969 1998.238281 941.15625 1993.128906 1013.988281 1890.730469 "/>
<path fill-rule="nonzero" fill="rgb(26.660156%, 47.068787%, 12.939453%)" fill-opacity="1" d="M 919.070312 1478.8125 C 840.425781 1566.277344 857.503906 1661.859375 979.820312 1715.484375 C 1027.121094 1637.089844 1038.75 1528.375 919.070312 1478.8125 Z M 1174.050781 1554.945312 C 1049.148438 1570.140625 987.273438 1649.8125 1034.199219 1763.527344 C 1129.351562 1735.714844 1222.21875 1664.101562 1174.050781 1554.945312 Z M 830.691406 1653.605469 C 789.683594 1650.289062 746.996094 1661.769531 707.1875 1696.375 C 771.753906 1792.492188 878.546875 1811.921875 978.117188 1729.140625 C 939.945312 1690.472656 886.894531 1658.144531 830.691406 1653.605469 Z M 1016.371094 1746.515625 C 917.222656 1759.242188 811.757812 1815.457031 837.855469 1930.378906 C 963.828125 1934.660156 1040.351562 1865.730469 1016.371094 1746.515625 "/>
<path fill-rule="nonzero" fill="rgb(33.325195%, 83.201599%, 0%)" fill-opacity="1" d="M 873.199219 1288.464844 C 755.804688 1329.234375 716.699219 1419.570312 792.355469 1520.34375 C 877.507812 1473.496094 948.871094 1384.546875 873.199219 1288.464844 Z M 1051.019531 1467.667969 C 934.324219 1425.324219 835.832031 1466.804688 812.339844 1586.101562 C 910.402344 1604.300781 1031.179688 1583.574219 1051.019531 1467.667969 Z M 698.140625 1400.511719 C 664.507812 1379.421875 621.078125 1370.390625 567.105469 1382.660156 C 568.808594 1494.5625 650.308594 1558.835938 783.179688 1531.410156 C 771.9375 1480.972656 744.234375 1429.417969 698.140625 1400.511719 Z M 806.503906 1563.449219 C 713.488281 1530.414062 590.492188 1532.21875 548.289062 1643.308594 C 654.929688 1702.988281 760.039062 1677.3125 806.503906 1563.449219 "/>
<path fill-rule="nonzero" fill="rgb(26.660156%, 66.601562%, 0%)" fill-opacity="1" d="M 936.234375 1760.011719 C 939.675781 1871.882812 1022.171875 1935.148438 1154.601562 1906.101562 C 1133.800781 1819.105469 1063.710938 1729.363281 936.234375 1760.011719 Z M 1186.410156 1672.207031 C 1102 1755.328125 1112.589844 1851.644531 1231.058594 1911.683594 C 1283.578125 1835.945312 1302.53125 1728.046875 1186.410156 1672.207031 Z M 995.683594 1944.191406 C 961.933594 1965.140625 937.648438 1998.351562 932.367188 2047.589844 C 1051.539062 2084.078125 1147.269531 2037.785156 1163.21875 1917.511719 C 1105.960938 1909.8125 1041.929688 1915.484375 995.683594 1944.191406 Z M 1205.078125 1908.886719 C 1138.550781 1975.382812 1098.800781 2078.722656 1202.238281 2151.609375 C 1301.609375 2082.757812 1310.019531 1986.269531 1205.078125 1908.886719 "/>
<path fill-rule="nonzero" fill="rgb(39.988708%, 100%, 0%)" fill-opacity="1" d="M 1232.5 1558.160156 C 1128.238281 1621.0625 1112.71875 1716.855469 1211.699219 1800.191406 C 1283 1737.722656 1330.320312 1636.921875 1232.5 1558.160156 Z M 1450.71875 1697.824219 C 1326.351562 1679.550781 1240.691406 1739.417969 1247.640625 1860.363281 C 1347.800781 1858.773438 1460.371094 1814.746094 1450.71875 1697.824219 Z M 1089.851562 1701.929688 C 1051.78125 1687.996094 1007.179688 1687.757812 957.625 1710.363281 C 987.28125 1819.132812 1082.828125 1865.730469 1205.519531 1812.789062 C 1181.941406 1765.828125 1142.03125 1721.023438 1089.851562 1701.929688 Z M 1236.28125 1839.429688 C 1137.320312 1825.558594 1017.851562 1851.570312 1004.5 1968.207031 C 1123.410156 2005.371094 1219.46875 1959.609375 1236.28125 1839.429688 "/>
<path fill-rule="nonzero" fill="rgb(19.993591%, 50.193787%, 0%)" fill-opacity="1" d="M 510.496094 1758.425781 C 504.027344 1870.1875 580.664062 1939.011719 715.261719 1919.289062 C 702.21875 1831.113281 640.285156 1736.761719 510.496094 1758.425781 Z M 767.664062 1688.335938 C 676.160156 1765.3125 678.195312 1862.074219 790.992188 1930.1875 C 850.046875 1858.347656 878.484375 1752.101562 767.664062 1688.335938 Z M 553.460938 1946.179688 C 517.960938 1964.710938 490.8125 1996.128906 481.191406 2044.84375 C 596.765625 2089.53125 696.296875 2050.054688 722.84375 1931.265625 C 666.4375 1919.601562 602.105469 1920.789062 553.460938 1946.179688 Z M 765.335938 1925.585938 C 693.128906 1987.238281 644.351562 2087.488281 741.019531 2167.363281 C 846.183594 2105.65625 863.097656 2010.050781 765.335938 1925.585938 "/>
<path fill-rule="nonzero" fill="rgb(33.325195%, 83.201599%, 0%)" fill-opacity="1" d="M 862.117188 1631.023438 C 737.492188 1647.867188 676.953125 1728.351562 725.777344 1841.429688 C 820.457031 1812.363281 912.117188 1739.53125 862.117188 1631.023438 Z M 991.160156 1840.566406 C 887.820312 1776.46875 781.464844 1797.695312 728.980469 1909.476562 C 820.128906 1946.386719 943.078125 1949.757812 991.160156 1840.566406 Z M 663.574219 1706.132812 C 635.992188 1678.988281 595.867188 1661.699219 540.175781 1663.125 C 514.101562 1772.613281 577.675781 1851.230469 714.089844 1850.433594 C 715.621094 1799.035156 701.375 1743.332031 663.574219 1706.132812 Z M 728.898438 1886.242188 C 646.351562 1835.847656 525.921875 1813.585938 457.222656 1913.707031 C 546.457031 1992.753906 655.355469 1988.242188 728.898438 1886.242188 "/>
<path fill-rule="nonzero" fill="rgb(26.660156%, 66.601562%, 0%)" fill-opacity="1" d="M 530.503906 575.460938 C 472 627.570312 467.035156 691.929688 524.535156 742.011719 C 458.976562 735.570312 386.921875 756.859375 375.628906 837.039062 C 455.746094 866.429688 522.808594 837.480469 541.140625 754.851562 C 542.851562 756.039062 544.589844 757.210938 546.378906 758.371094 C 588.457031 704.191406 608.917969 623.929688 530.503906 575.460938 Z M 596.238281 731.910156 C 584.074219 736.75 571.929688 744.078125 560.007812 754.308594 C 562.695312 758.96875 565.511719 763.410156 568.445312 767.621094 C 560.007812 766.351562 550.941406 765.851562 541.210938 766.210938 C 523.628906 849.171875 569.363281 908.160156 666.09375 906.609375 C 666.589844 877.351562 660.71875 846.308594 646.226562 820.859375 C 678.949219 826.199219 715.210938 815.390625 751 786.019531 C 713.945312 742.769531 654.855469 708.570312 596.238281 731.910156 "/>
<path fill-rule="nonzero" fill="rgb(39.988708%, 100%, 0%)" fill-opacity="1" d="M 700.304688 350.921875 C 632.066406 310.800781 565.070312 322.789062 528.710938 388.25 C 518.441406 326.628906 478.195312 266.191406 393.414062 276.460938 C 383.988281 357.300781 430.78125 411.199219 519.859375 406.738281 C 519.09375 408.609375 518.335938 410.5 517.613281 412.441406 C 583.746094 437.011719 670.960938 435.101562 700.304688 350.921875 Z M 557.445312 451.25 C 549.371094 441.359375 538.773438 432.128906 525.261719 423.859375 C 521.1875 427.511719 517.378906 431.230469 513.835938 435 C 512.964844 426.949219 511.152344 418.53125 508.285156 409.71875 C 419.054688 414.949219 370.5625 471.941406 397.003906 560.019531 C 427.007812 552.960938 457.195312 539.609375 479.453125 519.820312 C 482.414062 551.121094 502.761719 581.511719 541.949219 606.699219 C 576.59375 561.699219 596.335938 498.859375 557.445312 451.25 "/>
<path fill-rule="nonzero" fill="rgb(26.660156%, 66.601562%, 0%)" fill-opacity="1" d="M 495.394531 555.671875 C 417.449219 537.261719 357.554688 568.089844 344.128906 640.949219 C 314.410156 585.269531 256.535156 539.398438 179.15625 573.761719 C 196.34375 653.441406 258.328125 691.179688 341.683594 661.121094 C 341.558594 663.121094 341.453125 665.140625 341.386719 667.191406 C 412.292969 671.410156 494.699219 644.308594 495.394531 555.671875 Z M 391.863281 692.589844 C 380.980469 685.519531 367.90625 679.808594 352.363281 675.839844 C 349.671875 680.511719 347.25 685.148438 345.09375 689.761719 C 341.660156 682.351562 337.210938 674.859375 331.628906 667.308594 C 248.382812 698.160156 220.664062 766.460938 274.335938 842.640625 C 300.613281 827.21875 325.03125 805.769531 339.8125 780.46875 C 352.765625 809.410156 381.96875 832.449219 427.425781 845.058594 C 445.839844 792.179688 444.296875 726.640625 391.863281 692.589844 "/>
<path fill-rule="nonzero" fill="rgb(33.325195%, 83.201599%, 0%)" fill-opacity="1" d="M 237.539062 540.261719 C 206.070312 610.21875 228.835938 671.050781 302.742188 695.050781 C 239.976562 714.078125 183.019531 760.960938 206.703125 838.691406 C 292.546875 835.148438 341.675781 783.140625 323.40625 700.511719 C 325.472656 700.941406 327.5625 701.359375 329.695312 701.738281 C 345.238281 636.128906 329.917969 554.839844 237.539062 540.261719 Z M 364.128906 658.550781 C 355.042969 667.609375 347.027344 678.929688 340.449219 692.839844 C 344.890625 696.089844 349.355469 699.078125 353.828125 701.820312 C 345.558594 703.871094 337.042969 706.851562 328.285156 710.878906 C 347.386719 793.539062 414.304688 830.179688 502.230469 791.988281 C 490.269531 765 471.722656 738.808594 447.652344 721.019531 C 479.882812 713.460938 508.507812 689.78125 528.816406 649.28125 C 476.527344 623.75 407.902344 614.890625 364.128906 658.550781 "/>
<path fill-rule="nonzero" fill="rgb(26.660156%, 66.601562%, 0%)" fill-opacity="1" d="M 606.53125 267.320312 C 553.316406 324.28125 554.605469 388.800781 616.714844 433.679688 C 550.808594 432.960938 481.117188 460.398438 477.632812 541.230469 C 560.261719 563.550781 624.238281 528.898438 634.492188 445.03125 C 636.3125 446.058594 638.15625 447.078125 640.050781 448.078125 C 676.703125 390.480469 689.308594 308.78125 606.53125 267.320312 Z M 687.140625 417.410156 C 675.492188 423.28125 664.109375 431.628906 653.226562 442.859375 C 656.355469 447.269531 659.589844 451.441406 662.917969 455.378906 C 654.390625 454.851562 645.316406 455.128906 635.660156 456.328125 C 626.183594 540.46875 677.4375 595.25 773.609375 585.308594 C 771.273438 556.128906 762.425781 525.730469 745.527344 501.648438 C 778.628906 504.121094 813.691406 490.21875 846.484375 457.871094 C 805.398438 418.011719 743.246094 389.078125 687.140625 417.410156 "/>
<path fill-rule="nonzero" fill="rgb(26.660156%, 66.601562%, 0%)" fill-opacity="1" d="M 709.269531 807.660156 C 677.140625 877.351562 699.324219 938.371094 773.003906 963 C 710.058594 981.488281 652.660156 1027.890625 675.605469 1105.820312 C 761.480469 1103.011719 811.097656 1051.421875 793.613281 968.628906 C 795.675781 969.078125 797.761719 969.519531 799.890625 969.921875 C 816.054688 904.441406 801.507812 823.03125 709.269531 807.660156 Z M 834.730469 927.019531 C 825.5625 936.011719 817.4375 947.261719 810.730469 961.109375 C 815.140625 964.390625 819.574219 967.429688 824.023438 970.210938 C 815.734375 972.179688 807.1875 975.089844 798.394531 979.039062 C 816.710938 1061.859375 883.277344 1099.070312 971.5625 1061.628906 C 959.859375 1034.539062 941.5625 1008.191406 917.660156 990.191406 C 949.960938 982.910156 978.8125 959.480469 999.503906 919.148438 C 947.460938 893.179688 878.921875 883.738281 834.730469 927.019531 "/>
<path fill-rule="nonzero" fill="rgb(33.325195%, 83.201599%, 0%)" fill-opacity="1" d="M 760.132812 633.699219 C 711.8125 694.449219 718.453125 758.671875 784.09375 798.789062 C 718.335938 802.980469 651.136719 835.519531 654.371094 916.351562 C 738.597656 932.460938 799.5 893.160156 802.761719 808.789062 C 804.660156 809.679688 806.582031 810.558594 808.554688 811.421875 C 840.316406 751.269531 846.097656 668.878906 760.132812 633.699219 Z M 852.953125 777.328125 C 841.832031 784.058594 831.171875 793.230469 821.257812 805.230469 C 824.742188 809.390625 828.3125 813.308594 831.960938 816.988281 C 823.414062 817.089844 814.390625 818.050781 804.863281 819.96875 C 802.402344 904.550781 858.046875 955.351562 953.09375 938.289062 C 948.339844 909.371094 936.996094 879.730469 918.152344 856.980469 C 951.355469 856.980469 985.160156 840.511719 1015.171875 805.820312 C 970.894531 769.140625 906.535156 744.921875 852.953125 777.328125 "/>
<path fill-rule="nonzero" fill="rgb(26.660156%, 66.601562%, 0%)" fill-opacity="1" d="M 1118.289062 470.511719 C 1040.898438 450.109375 980.148438 479.410156 964.652344 551.898438 C 936.527344 495.488281 879.980469 448.160156 801.652344 480.53125 C 816.566406 560.621094 877.460938 599.929688 961.636719 572 C 961.457031 574 961.292969 576.011719 961.167969 578.058594 C 1031.929688 584.078125 1115.078125 559.089844 1118.289062 470.511719 Z M 1010.910156 604.738281 C 1000.230469 597.390625 987.320312 591.351562 971.894531 586.988281 C 969.074219 591.589844 966.519531 596.160156 964.230469 600.71875 C 961.011719 593.230469 956.773438 585.628906 951.410156 577.929688 C 867.316406 606.648438 837.667969 674.230469 889.15625 751.75 C 915.863281 737 940.882812 716.179688 956.375 691.269531 C 968.5 720.519531 997.039062 744.289062 1042.121094 758.058594 C 1062.03125 705.671875 1062.351562 640.109375 1010.910156 604.738281 "/>
<path fill-rule="nonzero" fill="rgb(26.660156%, 66.601562%, 0%)" fill-opacity="1" d="M 1112.890625 585.328125 C 1041.050781 551.300781 975.503906 569.058594 945.640625 637.398438 C 929.441406 576.929688 883.507812 520.238281 800.082031 537.820312 C 798.527344 619.140625 850.347656 668.75 938.617188 656.578125 C 938.035156 658.511719 937.464844 660.449219 936.929688 662.441406 C 1005.171875 681.171875 1091.828125 671.699219 1112.890625 585.328125 Z M 980.355469 697.628906 C 971.359375 688.488281 959.914062 680.21875 945.652344 673.148438 C 941.953125 677.148438 938.519531 681.179688 935.355469 685.238281 C 933.710938 677.300781 931.089844 669.070312 927.378906 660.550781 C 839.03125 673.5 796.269531 734.460938 831.128906 819.871094 C 860.324219 810.238281 889.089844 794.328125 909.335938 772.691406 C 915.320312 803.601562 938.527344 832.101562 979.988281 853.78125 C 1010.128906 805.960938 1023.699219 741.671875 980.355469 697.628906 "/>
<path fill-rule="nonzero" fill="rgb(26.660156%, 66.601562%, 0%)" fill-opacity="1" d="M 1144.289062 611.921875 C 1065.730469 627.808594 1026.261719 680.421875 1048.039062 751.449219 C 995.480469 713.808594 922.195312 696.691406 868.652344 759.738281 C 921.101562 824.160156 994.308594 832.269531 1055.210938 770.578125 C 1056.03125 772.429688 1056.871094 774.289062 1057.761719 776.160156 C 1123.410156 750.441406 1184.839844 691.820312 1144.289062 611.921875 Z M 1114.898438 777.96875 C 1101.839844 776.148438 1087.441406 776.449219 1071.640625 779.359375 C 1071.390625 784.671875 1071.371094 789.851562 1071.578125 794.890625 C 1065.050781 789.671875 1057.578125 784.789062 1049.050781 780.328125 C 988.609375 842.671875 995.445312 915.550781 1079.039062 961.648438 C 1095.480469 936.859375 1107.441406 907.429688 1108.96875 878.558594 C 1134.039062 899.171875 1170.980469 907.699219 1217.660156 900.121094 C 1209.640625 844.960938 1177.808594 786.738281 1114.898438 777.96875 "/>
<path fill-rule="nonzero" fill="rgb(33.325195%, 83.201599%, 0%)" fill-opacity="1" d="M 1188.988281 503.300781 C 1110.078125 489.039062 1052.109375 523 1043.011719 596.449219 C 1010.039062 542.441406 949.546875 499.710938 874.320312 538.101562 C 896.191406 616.75 960.3125 651.148438 1041.761719 616.71875 C 1041.75 618.730469 1041.769531 620.75 1041.820312 622.800781 C 1112.871094 623.25 1193.539062 591.828125 1188.988281 503.300781 Z M 1093.71875 645.480469 C 1082.441406 639 1069.050781 633.988281 1053.289062 630.859375 C 1050.878906 635.660156 1048.738281 640.421875 1046.859375 645.140625 C 1042.988281 637.929688 1038.109375 630.679688 1032.089844 623.429688 C 950.792969 658.640625 927.160156 728.308594 985.25 801.53125 C 1010.578125 784.738281 1033.691406 762.03125 1046.949219 735.988281 C 1061.589844 764.191406 1092.109375 785.648438 1138.238281 795.839844 C 1153.5 742.058594 1148.089844 676.710938 1093.71875 645.480469 "/>
<path fill-rule="nonzero" fill="rgb(26.660156%, 66.601562%, 0%)" fill-opacity="1" d="M 1284.570312 110.488281 C 1211.769531 142.660156 1185.78125 202.320312 1223.839844 266.910156 C 1163.699219 241.378906 1088.230469 240.261719 1050.988281 313.070312 C 1117.378906 364.710938 1190.640625 357.070312 1235.371094 284.03125 C 1236.601562 285.660156 1237.859375 287.289062 1239.179688 288.921875 C 1297.050781 249.921875 1343.019531 179.75 1284.570312 110.488281 Z M 1295.28125 278.550781 C 1282.128906 279.550781 1268.171875 282.910156 1253.460938 289.101562 C 1254.480469 294.320312 1255.679688 299.371094 1257.078125 304.238281 C 1249.480469 300.53125 1241.039062 297.371094 1231.679688 294.828125 C 1187.550781 368.421875 1211.488281 437.988281 1303.878906 465.160156 C 1314.019531 437.519531 1318.710938 406.300781 1313.351562 377.839844 C 1342.671875 392.589844 1380.691406 393.070312 1424.390625 375.769531 C 1403.488281 323.71875 1358.671875 273.738281 1295.28125 278.550781 "/>
<path fill-rule="nonzero" fill="rgb(19.993591%, 50.193787%, 0%)" fill-opacity="1" d="M 715.101562 350.558594 C 676.058594 417.011719 691.957031 479.761719 762.800781 510.960938 C 698.269531 523.660156 636.433594 564.628906 651.375 644.28125 C 737.140625 649.28125 791.757812 602.429688 782.742188 518.441406 C 784.753906 519.070312 786.785156 519.691406 788.859375 520.289062 C 811.589844 456.578125 805.355469 374.21875 715.101562 350.558594 Z M 827.890625 480.75 C 817.851562 488.859375 808.625 499.328125 800.542969 512.5 C 804.601562 516.171875 808.707031 519.601562 812.851562 522.761719 C 804.402344 523.980469 795.601562 526.101562 786.445312 529.238281 C 796.285156 613.339844 858.777344 656.421875 950.449219 627.160156 C 941.542969 599.140625 926 571.25 904.03125 551.160156 C 936.921875 546.851562 968.015625 526.140625 992.699219 487.871094 C 943.527344 457.300781 876.261719 441.679688 827.890625 480.75 "/>
<path fill-rule="nonzero" fill="rgb(26.660156%, 66.601562%, 0%)" fill-opacity="1" d="M 898.726562 92.128906 C 820.726562 110.339844 783.011719 164.101562 807.125 234.441406 C 753.351562 198.371094 679.539062 183.429688 628.101562 248.03125 C 682.648438 310.871094 756.089844 316.808594 814.925781 253.351562 C 815.804688 255.179688 816.703125 257.011719 817.664062 258.851562 C 882.425781 231.210938 941.890625 170.789062 898.726562 92.128906 Z M 874.828125 258.96875 C 861.71875 257.53125 847.339844 258.269531 831.640625 261.640625 C 831.5625 266.960938 831.714844 272.128906 832.085938 277.160156 C 825.394531 272.140625 817.757812 267.480469 809.09375 263.269531 C 750.738281 327.371094 759.976562 400.019531 845.046875 443.621094 C 860.660156 418.359375 871.652344 388.589844 872.222656 359.691406 C 897.964844 379.539062 935.160156 386.980469 981.574219 378.03125 C 971.734375 323.128906 938 265.871094 874.828125 258.96875 "/>
<path fill-rule="nonzero" fill="rgb(26.660156%, 66.601562%, 0%)" fill-opacity="1" d="M 1068.480469 624.390625 C 993.191406 650.921875 962.214844 708.410156 994.671875 775.679688 C 936.894531 745.671875 861.757812 738.808594 818.460938 808.558594 C 880.246094 865.078125 953.921875 863.03125 1004.710938 793.621094 C 1005.800781 795.339844 1006.921875 797.058594 1008.089844 798.789062 C 1069.089844 764.320312 1120.859375 697.871094 1068.480469 624.390625 Z M 1064.890625 792.71875 C 1051.699219 792.71875 1037.5 795 1022.308594 800.050781 C 1022.878906 805.339844 1023.648438 810.46875 1024.628906 815.421875 C 1017.371094 811.148438 1009.230469 807.351562 1000.109375 804.109375 C 949.882812 874.109375 967.832031 945.28125 1057.609375 979.378906 C 1070.070312 952.601562 1077.398438 921.839844 1074.46875 893.070312 C 1102.441406 910 1140.289062 913.371094 1185.320312 899.449219 C 1168.910156 845.96875 1128.488281 792.75 1064.890625 792.71875 "/>
<path fill-rule="nonzero" fill="rgb(33.325195%, 83.201599%, 0%)" fill-opacity="1" d="M 704.675781 201.929688 C 644.546875 252.359375 637.542969 316.550781 693.429688 368.230469 C 628.105469 359.941406 555.410156 379.171875 541.578125 459 C 620.730469 490.648438 688.679688 463.609375 709.621094 381.550781 C 711.296875 382.78125 712.992188 384 714.746094 385.210938 C 758.523438 332.25 781.519531 252.609375 704.675781 201.929688 Z M 765.425781 360.179688 C 753.109375 364.671875 740.738281 371.648438 728.496094 381.539062 C 731.035156 386.28125 733.710938 390.789062 736.507812 395.089844 C 728.113281 393.578125 719.066406 392.808594 709.328125 392.898438 C 689.125 475.320312 732.96875 535.589844 829.703125 536.78125 C 831.128906 507.550781 826.246094 476.359375 812.566406 450.511719 C 845.105469 456.769531 881.695312 447 918.398438 418.660156 C 882.730469 374.371094 824.753906 338.511719 765.425781 360.179688 "/>
<path fill-rule="nonzero" fill="rgb(33.325195%, 83.201599%, 0%)" fill-opacity="1" d="M 1437.101562 334.910156 C 1358.03125 321.441406 1300.441406 355.988281 1292.171875 429.53125 C 1258.601562 375.839844 1197.628906 333.730469 1122.839844 372.878906 C 1145.589844 451.300781 1210.101562 485.058594 1291.148438 449.800781 C 1291.160156 451.808594 1291.199219 453.828125 1291.28125 455.878906 C 1362.328125 455.621094 1442.640625 423.390625 1437.101562 334.910156 Z M 1343.429688 478.039062 C 1332.078125 471.671875 1318.628906 466.800781 1302.839844 463.828125 C 1300.480469 468.648438 1298.390625 473.429688 1296.570312 478.171875 C 1292.621094 471 1287.648438 463.800781 1281.550781 456.621094 C 1200.660156 492.640625 1177.808594 562.539062 1236.71875 635.171875 C 1261.859375 618.128906 1284.710938 595.191406 1297.679688 569.011719 C 1312.640625 597.070312 1343.398438 618.210938 1389.640625 627.941406 C 1404.300781 574.011719 1398.148438 508.71875 1343.429688 478.039062 "/>
<path fill-rule="nonzero" fill="rgb(39.988708%, 100%, 0%)" fill-opacity="1" d="M 1231.679688 217.308594 C 1155.089844 194.359375 1093.300781 221.628906 1075.128906 293.558594 C 1049.109375 236.238281 994.347656 187.070312 914.871094 216.820312 C 926.808594 297.359375 986.207031 338.660156 1071.371094 313.539062 C 1071.109375 315.53125 1070.871094 317.539062 1070.679688 319.589844 C 1141.171875 327.949219 1225.191406 305.738281 1231.679688 217.308594 Z M 1119.390625 347.890625 C 1108.988281 340.199219 1096.320312 333.730469 1081.058594 328.871094 C 1078.070312 333.359375 1075.351562 337.851562 1072.898438 342.328125 C 1069.960938 334.738281 1066 327 1060.929688 319.128906 C 975.820312 345.039062 943.6875 411.589844 992.269531 490.769531 C 1019.511719 476.921875 1045.28125 456.941406 1061.691406 432.558594 C 1072.71875 462.199219 1100.359375 486.898438 1144.910156 502.160156 C 1166.75 450.460938 1169.5 384.960938 1119.390625 347.890625 "/>
<path fill-rule="nonzero" fill="rgb(39.988708%, 100%, 0%)" fill-opacity="1" d="M 2229.28125 1129.550781 C 2132.410156 1112.308594 2060.371094 1149.410156 2047.710938 1231.53125 C 2008.191406 1170.5 1934.558594 1121.660156 1841.191406 1163.460938 C 1866.558594 1251.898438 1944.820312 1291.46875 2045.769531 1254.214844 C 2045.71875 1256.460938 2045.699219 1258.722656 2045.730469 1261.023438 C 2133.191406 1262.679688 2233.128906 1228.789062 2229.28125 1129.550781 Z M 2109.179688 1287.265625 C 2095.410156 1279.824219 2079.03125 1273.996094 2059.691406 1270.234375 C 2056.628906 1275.570312 2053.890625 1280.871094 2051.488281 1286.125 C 2046.871094 1277.984375 2041 1269.789062 2033.730469 1261.578125 C 1932.949219 1299.699219 1902.46875 1377.351562 1972.539062 1460.296875 C 2004.050781 1441.902344 2032.960938 1416.835938 2049.800781 1387.882812 C 2067.269531 1419.714844 2104.421875 1444.234375 2161.011719 1456.394531 C 2180.859375 1396.402344 2175.488281 1323.117188 2109.179688 1287.265625 "/>
<path fill-rule="nonzero" fill="rgb(19.993591%, 50.193787%, 0%)" fill-opacity="1" d="M 2423.359375 1364.769531 C 2339.300781 1409.664062 2316.679688 1479.277344 2373.140625 1546.359375 C 2295.691406 1525.496094 2203.230469 1533.699219 2168.890625 1619.355469 C 2257.988281 1668.484375 2346.390625 1650.8125 2389.859375 1563.960938 C 2391.621094 1565.617188 2393.410156 1567.273438 2395.269531 1568.925781 C 2460.039062 1518.300781 2505.46875 1434.488281 2423.359375 1364.769531 Z M 2462.28125 1550.367188 C 2446.351562 1553.125 2429.800781 1558.605469 2412.769531 1567.335938 C 2414.808594 1573.019531 2417.058594 1578.488281 2419.511719 1583.726562 C 2409.648438 1580.554688 2398.839844 1578.089844 2387.011719 1576.4375 C 2344.359375 1663.820312 2384.320312 1738.214844 2501.449219 1756.871094 C 2509.609375 1724.851562 2510.539062 1689.539062 2499.621094 1658.550781 C 2537.730469 1671.292969 2584.289062 1667.066406 2635.058594 1642.351562 C 2601.511719 1587.0625 2539.039062 1537.078125 2462.28125 1550.367188 "/>
<path fill-rule="nonzero" fill="rgb(26.660156%, 66.601562%, 0%)" fill-opacity="1" d="M 2367.730469 1323.296875 C 2275.269531 1353.574219 2237.660156 1418.203125 2278.238281 1493.320312 C 2206.820312 1460.128906 2114.25 1453.007812 2061.578125 1531.460938 C 2138.171875 1594.3125 2228.871094 1591.46875 2290.761719 1513.34375 C 2292.121094 1515.257812 2293.511719 1517.179688 2294.96875 1519.105469 C 2369.761719 1480.035156 2432.898438 1405.210938 2367.730469 1323.296875 Z M 2364.859375 1511.882812 C 2348.609375 1511.972656 2331.148438 1514.640625 2312.5 1520.414062 C 2313.238281 1526.328125 2314.238281 1532.066406 2315.488281 1537.613281 C 2306.519531 1532.882812 2296.449219 1528.6875 2285.199219 1525.125 C 2223.988281 1603.90625 2246.75 1683.492188 2357.609375 1721.027344 C 2372.699219 1690.933594 2381.429688 1656.421875 2377.570312 1624.210938 C 2412.171875 1642.972656 2458.800781 1646.464844 2514.109375 1630.53125 C 2493.421875 1570.753906 2443.160156 1511.433594 2364.859375 1511.882812 "/>
<path fill-rule="nonzero" fill="rgb(19.993591%, 50.193787%, 0%)" fill-opacity="1" d="M 2145.648438 1308.90625 C 2049.488281 1328.886719 2002.710938 1388.90625 2031.941406 1467.832031 C 1965.960938 1427.140625 1875.179688 1410.007812 1811.421875 1482.101562 C 1878.179688 1552.78125 1968.558594 1559.828125 2041.421875 1489.058594 C 2042.488281 1491.105469 2043.589844 1493.160156 2044.75 1495.230469 C 2124.679688 1464.609375 2198.289062 1397.253906 2145.648438 1308.90625 Z M 2115.140625 1495.667969 C 2099 1493.992188 2081.300781 1494.738281 2061.949219 1498.4375 C 2061.820312 1504.386719 2061.980469 1510.183594 2062.390625 1515.820312 C 2054.191406 1510.152344 2044.820312 1504.898438 2034.179688 1500.140625 C 1961.898438 1571.632812 1972.800781 1653.058594 2077.261719 1702.347656 C 2096.648438 1674.136719 2110.378906 1640.851562 2111.269531 1608.480469 C 2142.839844 1630.855469 2188.589844 1639.390625 2245.789062 1629.601562 C 2234.039062 1568.054688 2192.878906 1503.738281 2115.140625 1495.667969 "/>
<path fill-rule="nonzero" fill="rgb(33.325195%, 83.201599%, 0%)" fill-opacity="1" d="M 2580.03125 1719.566406 C 2505.570312 1775.644531 2496.410156 1847.5 2564.800781 1905.777344 C 2484.429688 1896.039062 2394.761719 1917.089844 2377.070312 2006.414062 C 2474.261719 2042.40625 2558.148438 2012.585938 2584.621094 1920.800781 C 2586.671875 1922.1875 2588.75 1923.570312 2590.898438 1924.941406 C 2645.238281 1865.914062 2674.21875 1776.855469 2580.03125 1719.566406 Z M 2653.511719 1897.238281 C 2638.308594 1902.195312 2623.019531 1909.921875 2607.859375 1920.917969 C 2610.949219 1926.242188 2614.199219 1931.320312 2617.609375 1936.148438 C 2607.289062 1934.398438 2596.160156 1933.480469 2584.171875 1933.511719 C 2558.601562 2025.703125 2612.078125 2093.507812 2731.179688 2095.503906 C 2733.179688 2062.765625 2727.429688 2027.792969 2710.800781 1998.75 C 2750.808594 2005.984375 2795.941406 1995.289062 2841.371094 1963.789062 C 2797.820312 1913.941406 2726.738281 1873.375 2653.511719 1897.238281 "/>
<path fill-rule="nonzero" fill="rgb(33.325195%, 83.201599%, 0%)" fill-opacity="1" d="M 2396.558594 1194.21875 C 2297.679688 1196.71875 2237.539062 1247.148438 2247.261719 1329.570312 C 2192.441406 1278.050781 2107.699219 1245.191406 2028.058594 1304.425781 C 2076.480469 1385.429688 2163.238281 1408.355469 2251.460938 1352.023438 C 2252.019531 1354.21875 2252.601562 1356.421875 2253.25 1358.65625 C 2338.78125 1342.863281 2426.929688 1290.007812 2396.558594 1194.21875 Z M 2322.019531 1371.566406 C 2306.640625 1367.0625 2289.128906 1364.652344 2269.308594 1364.839844 C 2267.761719 1370.640625 2266.519531 1376.339844 2265.589844 1381.933594 C 2258.910156 1374.929688 2251 1368.128906 2241.730469 1361.582031 C 2153.898438 1418.726562 2145.089844 1500.339844 2235.519531 1567.097656 C 2261.238281 1542.929688 2282.640625 1512.792969 2291.261719 1481.273438 C 2316.789062 1508.765625 2359.519531 1525.230469 2417.839844 1525.800781 C 2421.058594 1463.484375 2396.160156 1393.253906 2322.019531 1371.566406 "/>
<path fill-rule="nonzero" fill="rgb(33.325195%, 83.201599%, 0%)" fill-opacity="1" d="M 2578.03125 1499.277344 C 2485.351562 1469.511719 2407.570312 1496.71875 2380.519531 1576.222656 C 2352.28125 1510.710938 2288.160156 1452.777344 2188.46875 1481.816406 C 2197.878906 1572.554688 2268.210938 1621.9375 2374.589844 1598.378906 C 2374.140625 1600.59375 2373.710938 1602.828125 2373.339844 1605.105469 C 2459.480469 1618.226562 2564.25 1597.859375 2578.03125 1499.277344 Z M 2431.390625 1639.371094 C 2419.109375 1630.210938 2403.941406 1622.300781 2385.511719 1616.042969 C 2381.53125 1620.910156 2377.890625 1625.789062 2374.578125 1630.667969 C 2371.460938 1622.015625 2367.109375 1613.144531 2361.378906 1604.078125 C 2255.03125 1628.515625 2211.148438 1701.257812 2265.710938 1792.433594 C 2300.109375 1778.394531 2333.109375 1757.417969 2354.890625 1731.015625 C 2366.511719 1764.765625 2398.890625 1793.878906 2452.660156 1813.328125 C 2482.910156 1756.648438 2490.578125 1683.511719 2431.390625 1639.371094 "/>
<path fill-rule="nonzero" fill="rgb(44.309998%, 78.514099%, 21.556091%)" fill-opacity="1" d="M 2865.75 1260.703125 C 2767.238281 1268.367188 2710.761719 1321.855469 2726.289062 1403.613281 C 2667.929688 1355.054688 2581.019531 1326.683594 2505.71875 1389.980469 C 2559.761719 1468.300781 2647.980469 1486.644531 2732.070312 1425.804688 C 2732.769531 1427.964844 2733.511719 1430.136719 2734.308594 1432.328125 C 2818.578125 1412.09375 2902.828125 1354.722656 2865.75 1260.703125 Z M 2803.871094 1441.617188 C 2788.199219 1437.929688 2770.550781 1436.441406 2750.78125 1437.664062 C 2749.640625 1443.535156 2748.808594 1449.289062 2748.269531 1454.921875 C 2741.109375 1448.28125 2732.738281 1441.902344 2723.019531 1435.855469 C 2639.390625 1497.484375 2636.351562 1579.410156 2731.328125 1641.316406 C 2755.289062 1615.847656 2774.519531 1584.648438 2780.898438 1552.734375 C 2808.328125 1578.839844 2852.140625 1593.039062 2910.390625 1590.558594 C 2909.210938 1528.1875 2879.398438 1459.386719 2803.871094 1441.617188 "/>
<path fill-rule="nonzero" fill="rgb(39.988708%, 100%, 0%)" fill-opacity="1" d="M 2779.488281 1344.519531 C 2682.210938 1359.941406 2631.679688 1417.667969 2655.859375 1497.855469 C 2592.570312 1454.117188 2503 1432.738281 2434.769531 1501.722656 C 2496.929688 1575.4375 2586.738281 1586.726562 2663.980469 1519.492188 C 2664.921875 1521.589844 2665.878906 1523.695312 2666.921875 1525.816406 C 2748.660156 1499 2826.441406 1435.210938 2779.488281 1344.519531 Z M 2737.171875 1529.5625 C 2721.171875 1527.132812 2703.441406 1527.042969 2683.878906 1529.824219 C 2683.371094 1535.757812 2683.160156 1541.554688 2683.21875 1547.207031 C 2675.390625 1541.160156 2666.359375 1535.472656 2656.039062 1530.21875 C 2579.339844 1598.203125 2585.050781 1680.019531 2686.230469 1734.152344 C 2707.378906 1706.898438 2723.199219 1674.308594 2726.148438 1642.027344 C 2756.238281 1665.851562 2801.378906 1676.527344 2859.128906 1669.449219 C 2851.289062 1607.4375 2814.28125 1541.28125 2737.171875 1529.5625 "/>
<path fill-rule="nonzero" fill="rgb(26.660156%, 66.601562%, 0%)" fill-opacity="1" d="M 2261.679688 1846.699219 C 2214.699219 1921.652344 2235.300781 1991.730469 2323.03125 2025.738281 C 2243.789062 2040.8125 2168.328125 2087.53125 2188.019531 2176.546875 C 2293.699219 2181.003906 2360.179688 2127.804688 2347.699219 2033.84375 C 2350.191406 2034.527344 2352.699219 2035.195312 2355.269531 2035.832031 C 2382.210938 1964.167969 2373.191406 1872.007812 2261.679688 1846.699219 Z M 2402.671875 1991.03125 C 2390.441406 2000.246094 2379.261719 2012.089844 2369.519531 2026.957031 C 2374.578125 2031.015625 2379.691406 2034.792969 2384.851562 2038.289062 C 2374.460938 2039.757812 2363.660156 2042.25 2352.441406 2045.890625 C 2365.929688 2139.957031 2443.570312 2187.378906 2555.960938 2153.386719 C 2544.539062 2122.117188 2524.949219 2091.082031 2497.570312 2068.882812 C 2537.988281 2063.609375 2575.929688 2040 2605.699219 1996.8125 C 2544.660156 1963.222656 2461.589844 1946.621094 2402.671875 1991.03125 "/>
<path fill-rule="nonzero" fill="rgb(44.309998%, 78.514099%, 21.556091%)" fill-opacity="1" d="M 2373.328125 1747.339844 C 2282.171875 1714.28125 2203.140625 1738.679688 2172.269531 1817.140625 C 2147.21875 1750.675781 2085.960938 1690.492188 1984.949219 1715.9375 C 1989.96875 1806.9375 2057.859375 1858.796875 2165.269531 1839.070312 C 2164.71875 1841.265625 2164.191406 1843.480469 2163.699219 1845.742188 C 2249.128906 1861.9375 2354.800781 1845.34375 2373.328125 1747.339844 Z M 2220.050781 1882.0625 C 2208.21875 1872.46875 2193.449219 1864.019531 2175.328125 1857.105469 C 2171.121094 1861.828125 2167.25 1866.574219 2163.710938 1871.328125 C 2161.011719 1862.574219 2157.089844 1853.554688 2151.800781 1844.285156 C 2044.359375 1864.894531 1997.011719 1936.003906 2047.109375 2029.054688 C 2082.160156 2016.257812 2116.148438 1996.480469 2139.179688 1970.882812 C 2149.171875 2005.023438 2180.109375 2035.269531 2232.890625 2056.628906 C 2265.851562 2001.078125 2277.050781 1928.285156 2220.050781 1882.0625 "/>
<path fill-rule="nonzero" fill="rgb(33.325195%, 83.201599%, 0%)" fill-opacity="1" d="M 3410.488281 180.460938 C 3335.011719 199.058594 3297.148438 250.738281 3318.160156 317.148438 C 3267.609375 283.789062 3197.160156 270.828125 3145.78125 333.050781 C 3196.261719 391.820312 3266.628906 396.230469 3325.078125 334.980469 C 3325.871094 336.699219 3326.679688 338.429688 3327.539062 340.160156 C 3390.589844 312.820312 3449.558594 254.449219 3410.488281 180.460938 Z M 3382.449219 339.320312 C 3369.898438 338.171875 3356.058594 339.109375 3340.878906 342.578125 C 3340.640625 347.628906 3340.628906 352.539062 3340.828125 357.308594 C 3334.558594 352.648438 3327.371094 348.351562 3319.171875 344.5 C 3261.160156 406.359375 3267.820312 475.199219 3348.210938 515.191406 C 3363.96875 490.941406 3375.441406 462.480469 3376.871094 435.019531 C 3400.988281 453.449219 3436.488281 459.890625 3481.351562 450.609375 C 3473.570312 398.628906 3442.921875 344.820312 3382.449219 339.320312 "/>
<path fill-rule="nonzero" fill="rgb(39.988708%, 100%, 0%)" fill-opacity="1" d="M 3101.878906 283.429688 C 3054.738281 223.859375 2990.421875 210.410156 2934.800781 254.769531 C 2947.230469 197.109375 2932.339844 129.75 2852.660156 108.429688 C 2815.820312 175.890625 2838.878906 239.859375 2920.371094 267.808594 C 2919.019531 269.171875 2917.679688 270.558594 2916.351562 271.988281 C 2967.058594 317.171875 3045.980469 346.691406 3101.878906 283.429688 Z M 2938.460938 320.238281 C 2934.691406 308.699219 2928.421875 296.820312 2919.199219 284.738281 C 2914.269531 286.480469 2909.539062 288.378906 2905.039062 290.410156 C 2907.078125 283.050781 2908.421875 275.019531 2908.941406 266.28125 C 2827.039062 238.949219 2763.519531 271.550781 2756.308594 358.179688 C 2785.710938 362.71875 2817.480469 361.820312 2844.398438 352.441406 C 2836.070312 380.929688 2843.648438 414.839844 2869.96875 450.921875 C 2916.859375 423.871094 2956.640625 375.878906 2938.460938 320.238281 "/>
<path fill-rule="nonzero" fill="rgb(33.325195%, 83.201599%, 0%)" fill-opacity="1" d="M 3055.871094 228.691406 C 2988.480469 266.261719 2966.660156 325.871094 3005.671875 384.308594 C 2947.578125 365.378906 2876.121094 371.269531 2844.261719 444.539062 C 2909.46875 487.941406 2978.441406 473.851562 3017.371094 399.671875 C 3018.621094 401.121094 3019.878906 402.558594 3021.199219 404.011719 C 3074.160156 361.261719 3114.390625 289.71875 3055.871094 228.691406 Z M 3073.808594 388.890625 C 3061.410156 391.058594 3048.359375 395.570312 3034.730469 402.859375 C 3035.929688 407.78125 3037.308594 412.511719 3038.851562 417.050781 C 3031.488281 414.199219 3023.359375 411.941406 3014.378906 410.371094 C 2976.050781 485.019531 3001.929688 549.539062 3090.609375 567.070312 C 3098.921875 539.621094 3101.910156 509.25 3095.519531 482.449219 C 3123.941406 493.890625 3159.941406 490.839844 3200.480469 470.21875 C 3178.289062 422.21875 3133.570312 378.421875 3073.808594 388.890625 "/>
<path fill-rule="nonzero" fill="rgb(39.988708%, 100%, 0%)" fill-opacity="1" d="M 3414.289062 462.011719 C 3368.378906 401.570312 3304.339844 386.910156 3247.828125 430.210938 C 3261.429688 372.789062 3247.929688 305.171875 3168.710938 282.351562 C 3130.488281 349.101562 3152.230469 413.488281 3233.128906 442.96875 C 3231.761719 444.308594 3230.390625 445.671875 3229.03125 447.078125 C 3278.808594 493.199219 3357.109375 524.210938 3414.289062 462.011719 Z M 3250.148438 495.738281 C 3246.621094 484.121094 3240.589844 472.128906 3231.621094 459.871094 C 3226.648438 461.53125 3221.890625 463.328125 3217.351562 465.28125 C 3219.539062 457.960938 3221.039062 449.949219 3221.730469 441.21875 C 3140.410156 412.359375 3076.238281 443.75 3067.25 530.230469 C 3096.558594 535.320312 3128.339844 535.03125 3155.449219 526.148438 C 3146.53125 554.46875 3153.421875 588.519531 3178.988281 625.101562 C 3226.429688 598.941406 3267.179688 551.699219 3250.148438 495.738281 "/>
<path fill-rule="nonzero" fill="rgb(33.325195%, 83.201599%, 0%)" fill-opacity="1" d="M 3677.449219 630.050781 C 3650.789062 559.769531 3593.488281 528.648438 3526.699219 555.230469 C 3556.339844 503.671875 3562.878906 435.109375 3493.351562 392.109375 C 3437.359375 446.078125 3439.660156 513.730469 3508.890625 563.578125 C 3507.179688 564.5 3505.480469 565.441406 3503.761719 566.441406 C 3538.269531 623.988281 3604.558594 674.609375 3677.449219 630.050781 Z M 3510.011719 618.808594 C 3509.96875 606.710938 3507.640625 593.578125 3502.558594 579.421875 C 3497.300781 579.691406 3492.210938 580.148438 3487.28125 580.820312 C 3491.5 574.359375 3495.25 567.070312 3498.441406 558.871094 C 3428.628906 509.511719 3357.910156 522.601562 3324.320312 603.308594 C 3351 615.988281 3381.628906 624.160156 3410.238281 622.839844 C 3393.488281 647.691406 3390.28125 682.230469 3404.300781 724.179688 C 3457.429688 711.660156 3510.21875 677.109375 3510.011719 618.808594 "/>
<path fill-rule="nonzero" fill="rgb(39.988708%, 100%, 0%)" fill-opacity="1" d="M 3611.511719 747.570312 C 3581.980469 678.351562 3523.449219 649.429688 3457.800781 678.519531 C 3485.300781 625.878906 3489.011719 557.121094 3417.769531 516.789062 C 3364.039062 572.851562 3369.128906 640.351562 3440.351562 687.539062 C 3438.679688 688.519531 3437.011719 689.53125 3435.339844 690.589844 C 3472.191406 746.789062 3540.511719 794.859375 3611.511719 747.570312 Z M 3443.738281 742.679688 C 3443.199219 730.589844 3440.328125 717.558594 3434.671875 703.609375 C 3429.429688 704.070312 3424.359375 704.730469 3419.460938 705.578125 C 3423.421875 698.96875 3426.859375 691.550781 3429.710938 683.230469 C 3357.929688 636.550781 3287.800781 652.308594 3257.550781 734.230469 C 3284.738281 745.890625 3315.679688 752.898438 3344.210938 750.488281 C 3328.5 775.949219 3326.710938 810.589844 3342.441406 851.96875 C 3395.011719 837.449219 3446.339844 800.929688 3443.738281 742.679688 "/>
<path fill-rule="nonzero" fill="rgb(39.988708%, 100%, 0%)" fill-opacity="1" d="M 3160.921875 777.601562 C 3125.109375 711.171875 3064.140625 687.339844 3001.429688 721.898438 C 3023.960938 667.128906 3021.308594 598.320312 2946.621094 564.21875 C 2898.28125 624.621094 2909.578125 691.429688 2984.878906 732.371094 C 2983.308594 733.488281 2981.75 734.640625 2980.179688 735.828125 C 3022.078125 788.679688 3094.570312 830.738281 3160.921875 777.601562 Z M 2993.351562 787 C 2991.699219 775.011719 2987.640625 762.28125 2980.71875 748.859375 C 2975.539062 749.769531 2970.550781 750.859375 2965.75 752.121094 C 2969.078125 745.199219 2971.820312 737.511719 2973.890625 728.980469 C 2898.078125 688.589844 2829.679688 710.261719 2807.121094 794.429688 C 2835.28125 803.738281 2866.738281 808.078125 2894.941406 803.261719 C 2881.648438 829.960938 2883.070312 864.609375 2902.550781 904.488281 C 2953.578125 885.550781 3001.328125 844.800781 2993.351562 787 "/>
<path fill-rule="nonzero" fill="rgb(39.988708%, 100%, 0%)" fill-opacity="1" d="M 2932.5 430.359375 C 2858.640625 406.511719 2797.558594 430.078125 2777.519531 496.761719 C 2754.039062 442.359375 2702.300781 394.671875 2623.910156 420.011719 C 2632.921875 495.679688 2689.441406 536.160156 2773.210938 515.328125 C 2772.898438 517.191406 2772.601562 519.058594 2772.339844 520.960938 C 2840.730469 530.980469 2923.300781 512.839844 2932.5 430.359375 Z M 2818.871094 548.949219 C 2808.988281 541.429688 2796.859375 534.988281 2782.160156 529.960938 C 2779.101562 534.070312 2776.300781 538.191406 2773.761719 542.300781 C 2771.140625 535.109375 2767.550781 527.75 2762.859375 520.230469 C 2679.121094 541.800781 2645.648438 603.019531 2690.398438 678.570312 C 2717.378906 666.46875 2743.128906 648.601562 2759.910156 626.308594 C 2769.691406 654.371094 2795.820312 678.328125 2838.710938 693.988281 C 2861.660156 646.328125 2866.46875 585.171875 2818.871094 548.949219 "/>
<path fill-rule="nonzero" fill="rgb(39.988708%, 100%, 0%)" fill-opacity="1" d="M 2743.839844 296.519531 C 2676.160156 259.441406 2611.488281 271.261719 2578.429688 332.980469 C 2566.320312 275.25 2525.140625 218.878906 2443.128906 229.230469 C 2436.761719 305.148438 2484.078125 355.328125 2570.46875 350.398438 C 2569.789062 352.160156 2569.121094 353.941406 2568.480469 355.761719 C 2633.578125 378.261719 2718.238281 375.75 2743.839844 296.519531 Z M 2608.519531 391.839844 C 2600.328125 382.640625 2589.71875 374.070312 2576.308594 366.421875 C 2572.480469 369.878906 2568.898438 373.398438 2565.589844 376.960938 C 2564.46875 369.421875 2562.421875 361.53125 2559.320312 353.300781 C 2472.820312 358.949219 2427.679688 412.820312 2456.398438 495.238281 C 2485.308594 488.371094 2514.171875 475.601562 2535.109375 456.839844 C 2539.070312 486.179688 2559.890625 514.53125 2598.828125 537.828125 C 2630.929688 495.320312 2647.941406 436.199219 2608.519531 391.839844 "/>
<path fill-rule="nonzero" fill="rgb(33.325195%, 83.201599%, 0%)" fill-opacity="1" d="M 3151.429688 417.328125 C 3075.421875 400.859375 3017.171875 430.308594 3004.351562 498.621094 C 2975.191406 446.808594 2918.628906 404.460938 2843.359375 437.359375 C 2860.398438 511.761719 2920.929688 546.46875 3002.039062 517.511719 C 3001.929688 519.390625 3001.828125 521.269531 3001.769531 523.199219 C 3070.878906 526.441406 3151.070312 500.28125 3151.429688 417.328125 Z M 3051.050781 546.460938 C 3040.421875 539.960938 3027.660156 534.738281 3012.5 531.191406 C 3009.898438 535.578125 3007.550781 539.941406 3005.46875 544.28125 C 3002.101562 537.378906 2997.730469 530.421875 2992.269531 523.398438 C 2911.261719 553.089844 2884.5 617.28125 2937.078125 688.03125 C 2962.628906 673.351562 2986.339844 653.03125 3000.648438 629.21875 C 3013.371094 656.171875 3041.921875 677.429688 3086.25 688.789062 C 3104 639.121094 3102.261719 577.808594 3051.050781 546.460938 "/>
<path fill-rule="nonzero" fill="rgb(26.660156%, 47.068787%, 12.939453%)" fill-opacity="1" d="M 2948.421875 743.210938 C 2876.800781 713.738281 2813.941406 732.511719 2788.371094 797.429688 C 2769.53125 741.390625 2721.960938 689.859375 2641.699219 709.058594 C 2644.339844 785.191406 2697.269531 829.898438 2782.519531 815.609375 C 2782.050781 817.429688 2781.601562 819.269531 2781.179688 821.148438 C 2848.511719 836.421875 2932.328125 824.710938 2948.421875 743.210938 Z M 2825.21875 852.640625 C 2816 844.390625 2804.441406 837.03125 2790.210938 830.878906 C 2786.820312 834.738281 2783.679688 838.628906 2780.808594 842.53125 C 2778.800781 835.160156 2775.828125 827.539062 2771.789062 819.691406 C 2686.511719 834.71875 2648.019531 893.160156 2686.289062 971.921875 C 2714.199219 961.941406 2741.371094 946.121094 2759.960938 925.199219 C 2767.359375 953.921875 2791.390625 979.820312 2832.828125 998.738281 C 2859.699219 953.011719 2869.628906 892.421875 2825.21875 852.640625 "/>
<path fill-rule="nonzero" fill="rgb(33.325195%, 83.201599%, 0%)" fill-opacity="1" d="M 3175.558594 745.941406 C 3112.761719 790.21875 3097.710938 851.738281 3143.019531 905.820312 C 3083.148438 892.96875 3012.761719 906.179688 2989.261719 982.300781 C 3058.941406 1018.75 3125.941406 997.648438 3156.371094 919.890625 C 3157.769531 921.199219 3159.191406 922.511719 3160.660156 923.808594 C 3208.539062 875.871094 3240.558594 800.601562 3175.558594 745.941406 Z M 3211.28125 903.371094 C 3199.191406 906.800781 3186.71875 912.628906 3173.980469 921.28125 C 3175.730469 926.050781 3177.621094 930.609375 3179.671875 934.960938 C 3172.03125 932.878906 3163.691406 931.480469 3154.589844 930.839844 C 3124.808594 1009 3157.738281 1070.488281 3247.859375 1078.800781 C 3253.070312 1050.660156 3252.648438 1020.148438 3243.300781 994.160156 C 3272.839844 1002.621094 3308.289062 995.878906 3346.300781 971.210938 C 3318.878906 925.769531 3269.519531 886.820312 3211.28125 903.371094 "/>
</svg>
